<?xml version="1.0" encoding="utf-8"?>
<!-- Generator: Adobe Illustrator 26.5.0, SVG Export Plug-In . SVG Version: 6.00 Build 0)  -->
<svg version="1.1" id="Layer_1" xmlns="http://www.w3.org/2000/svg" xmlns:xlink="http://www.w3.org/1999/xlink" x="0px" y="0px"
	 viewBox="0 0 475.64 52.05" style="enable-background:new 0 0 475.64 52.05;" xml:space="preserve">
<style type="text/css">
	.st0{fill:#FFFFFF;stroke:#FFFFFF;stroke-width:0.75;stroke-miterlimit:10;}
</style>
<g>
	<path class="st0" d="M33.68,39.95l-1.07,0.98L31.62,42l-1.07,0.98l-0.98,1.07l-1.07,0.98l-1.56,0.49h-4.1l-1.46,0.59l-1.07,0.98
		l-1.56,0.49h-8.2l-1.46-0.49l-1.07-0.98l-1.56-0.59l-1.46-0.49l-1.07-0.98l-0.98-1.07l-0.49-1.46l0.49-1.56l1.46-0.59h2.05
		l1.56,0.59l1.07,0.98L10.04,42l1.07,0.98l1.46,0.49h4.1l1.56-0.49L19.32,42l1.46-0.59h2.05l1.56-0.49l1.07-0.98l1.46-0.59
		l1.56-0.49l1.07-0.98l0.98-1.07l0.59-1.46l-0.59-1.56l-0.98-1.07l-1.07-0.98l-0.98-1.07l-1.07-0.98l-1.56-0.59h-4.1l-1.46-0.49
		l-1.07-0.98l-1.56-0.59h-4.1l-1.46-0.49l-1.07-0.98l-1.56-0.59l-1.46-0.49l-1.07-0.98l-1.56-0.59l-1.46-0.49L1.84,21.5l-0.98-1.07
		l-0.49-1.46V12.8l0.49-1.56l0.98-1.07L2.43,8.7l0.49-1.56l1.46-0.59l1.56-0.49l1.07-0.98L8.48,4.5h16.41l1.56,0.59l1.07,0.98
		l0.98,1.07l0.59,1.56v2.05l-0.59,1.46l-1.56,0.49l-1.46-0.49l-1.07-0.98l-0.98-1.07l-1.07-0.98l-1.56-0.59H10.53L9.07,9.19
		l-1.07,0.98l-0.98,1.07l-1.07,0.98l-0.98,1.07l-0.49,1.56l0.49,1.46l0.98,1.07l1.07,0.98l0.98,1.07l1.07,0.98l1.46,0.49h2.05
		l1.56,0.59l1.07,0.98l1.46,0.49h2.05l1.56,0.59l1.07,0.98l1.46,0.49h4.1l1.56,0.59l1.07,0.98l1.46,0.49l1.56,0.59l1.07,0.98
		l0.98,1.07l0.59,1.56v6.15l-0.59,1.46L33.68,39.95z"/>
	<path class="st0" d="M76.25,49.62l-1.46-0.49l-0.49-1.46v-12.3l-0.59-1.56l-0.98-1.07l-1.07-0.98l-1.56-0.59H47.54l-1.46,0.59
		l-0.49,1.56v8.2l0.49,1.46l0.98,1.07l0.59,1.56v2.05l-0.59,1.46l-1.56,0.49h-2.05l-1.46-0.49l-0.49-1.46V12.8l0.49-1.56l0.98-1.07
		l1.07-0.98l1.46-0.59l1.56,0.59l0.59,1.56v2.05l-0.59,1.46l-0.98,1.07l-0.49,1.56v8.2l0.49,1.46l1.46,0.49h20.51l1.56-0.49
		l1.07-0.98l0.98-1.07l0.59-1.46v-12.3l0.49-1.56l0.98-1.07l1.07-0.98l1.46-0.59l1.56,0.59L78.4,8.7l-0.59,1.46l-0.98,1.07
		l-0.49,1.56v16.41l0.49,1.46l0.98,1.07l0.59,1.56v14.36l-0.59,1.46L76.25,49.62z"/>
	<path class="st0" d="M117.95,35.85l-0.49,1.56v2.05l-0.59,1.46L115.9,42l-1.07,0.98l-0.98,1.07l-1.07,0.98l-0.98,1.07l-1.07,0.98
		l-1.56,0.49H94.81l-1.46-0.49l-1.07-0.98l-0.98-1.07l-1.07-0.98l-0.98-1.07l-0.49-1.46l-0.59-1.56l-0.98-1.07l-0.49-1.46
		l-0.59-1.56l-0.98-1.07l-0.49-1.46v-12.3l0.49-1.56l0.98-1.07l0.59-1.46l0.49-1.56l0.98-1.07l0.59-1.46l0.49-1.56l0.98-1.07
		l1.07-0.98l1.46-0.59l1.56-0.49l1.07-0.98l1.46-0.59h12.3l1.56,0.59l1.07,0.98l1.46,0.49l1.56,0.59l0.59,1.56l0.49,1.46l0.98,1.07
		l0.59,1.56l0.49,1.46l0.98,1.07l0.59,1.56v14.36l-0.59,1.46L117.95,35.85z M115.41,31.26v-8.2l-0.59-1.56l-0.98-1.07l-0.49-1.46
		l-0.59-1.56l-0.98-1.07l-0.49-1.46l-0.59-1.56l-1.56-0.59l-1.46-0.49l-1.07-0.98l-1.56-0.59h-6.15l-1.46,0.59l-1.07,0.98
		l-0.98,1.07l-1.07,0.98l-0.98,1.07l-1.07,0.98l-0.98,1.07l-0.49,1.56v2.05l-0.59,1.46l-0.98,1.07l-0.49,1.56v6.15l0.49,1.46
		l0.98,1.07l0.59,1.56l0.49,1.46l0.98,1.07l1.07,0.98l0.98,1.07l1.07,0.98L96.37,42l1.07,0.98l1.46,0.49h6.15l1.56-0.49L107.7,42
		l1.46-0.59l1.56-0.49l0.59-1.46l0.49-1.56l0.98-1.07l0.59-1.46l0.49-1.56l0.98-1.07L115.41,31.26z"/>
	<path class="st0" d="M152.91,23.55l-1.07,0.98l-0.98,1.07l-1.07,0.98l-1.56,0.49l-1.46,0.59l-1.07,0.98l-1.56,0.49h-12.3
		l-1.46,0.59l-0.49,1.56l0.49,1.46l0.98,1.07l0.59,1.56v12.3l-0.59,1.46l-1.56,0.49l-1.46-0.49l-0.49-1.46V37.41l-0.59-1.56
		l-0.98-1.07l-0.49-1.46V8.7l0.49-1.56l1.46-0.59h22.56l1.56,0.59l1.07,0.98l0.98,1.07l0.59,1.56v10.25l-0.59,1.46L152.91,23.55z
		 M150.38,18.96v-4.1l-0.59-1.56l-0.98-1.07l-1.07-0.98l-1.56-0.59h-14.36l-1.46,0.59l-0.49,1.56v10.25l0.49,1.46l1.46,0.49h8.2
		l1.56-0.49l1.07-0.98l1.46-0.59h2.05l1.56-0.49l1.07-0.98l0.98-1.07L150.38,18.96z"/>
	<path class="st0" d="M187.88,23.55l-1.07,0.98l-0.98,1.07l-1.07,0.98l-1.56,0.49l-1.46,0.59l-1.07,0.98l-1.56,0.49h-12.3
		l-1.46,0.59l-0.49,1.56l0.49,1.46l0.98,1.07l0.59,1.56v12.3l-0.59,1.46l-1.56,0.49l-1.46-0.49l-0.49-1.46V37.41l-0.59-1.56
		l-0.98-1.07l-0.49-1.46V8.7l0.49-1.56l1.46-0.59h22.56l1.56,0.59l1.07,0.98l0.98,1.07l0.59,1.56v10.25l-0.59,1.46L187.88,23.55z
		 M185.34,18.96v-4.1l-0.59-1.56l-0.98-1.07l-1.07-0.98l-1.56-0.59h-14.36l-1.46,0.59l-0.49,1.56v10.25l0.49,1.46l1.46,0.49h8.2
		l1.56-0.49l1.07-0.98l1.46-0.59h2.05l1.56-0.49l1.07-0.98l0.98-1.07L185.34,18.96z"/>
	<path class="st0" d="M212,47.57h-14.36l-1.46-0.49l-0.49-1.46l0.49-1.56l1.46-0.59h2.05l1.56-0.49l0.59-1.46v-2.05l0.49-1.56
		l0.98-1.07l0.59-1.46V16.91l-0.59-1.56l-1.56-0.59h-4.1l-1.46-0.49l-0.49-1.46l0.49-1.56l1.46-0.59l1.56-0.49l1.07-0.98l1.46-0.59
		H212l1.56,0.59l0.59,1.56l-0.59,1.46L212,12.71h-2.05l-1.46,0.59l-0.49,1.56v22.56l-0.59,1.46l-0.98,1.07l-0.49,1.56l0.49,1.46
		l1.46,0.49h4.1l1.56,0.59l0.59,1.56l-0.59,1.46L212,47.57z"/>
	<path class="st0" d="M253.11,47.57h-2.05l-1.46-0.49l-1.07-0.98l-0.98-1.07l-0.49-1.46L246.47,42l-0.98-1.07L245,39.46l-0.59-1.56
		l-0.98-1.07l-1.07-0.98l-0.98-1.07l-1.07-0.98l-0.98-1.07l-0.49-1.46l-0.59-1.56l-0.98-1.07l-1.07-0.98l-0.98-1.07l-1.07-0.98
		l-0.98-1.07l-0.49-1.46l-0.59-1.56l-0.98-1.07l-1.07-0.98l-0.98-1.07l-1.07-0.98h-0.98l-0.49,1.56v18.46l-0.59,1.46l-0.98,1.07
		l-0.49,1.56v4.1l-0.59,1.46l-1.56,0.49l-1.46-0.49l-0.49-1.46v-6.15l0.49-1.56l0.98-1.07l0.59-1.46V8.7l0.49-1.56l1.46-0.59h2.05
		l1.56,0.59l0.59,1.56l0.49,1.46l0.98,1.07l1.07,0.98l0.98,1.07l0.59,1.56l0.49,1.46l0.98,1.07l1.07,0.98l0.98,1.07l0.59,1.56
		l0.49,1.46l1.46,0.49l1.56,0.59l0.59,1.56l0.49,1.46l0.98,1.07l1.07,0.98l0.98,1.07l0.59,1.56l0.49,1.46l0.98,1.07l1.07,0.98
		l0.98,1.07l0.59,1.56l0.49,1.46h0.98l0.59-1.46V8.7l0.49-1.56l1.46-0.59l1.56,0.59l0.59,1.56v36.91l-0.59,1.46L253.11,47.57z"/>
	<path class="st0" d="M298.91,46.11l-1.07,0.98l-0.98,1.07l-1.07,0.98l-1.56,0.49h-4.1l-1.46,0.59l-1.07,0.98l-1.56,0.49h-6.15
		l-1.46-0.49l-1.07-0.98l-1.56-0.59h-2.05l-1.46-0.49l-1.07-0.98l-1.56-0.59l-1.46-0.49l-1.07-0.98l-1.56-0.59l-1.46-0.49
		l-0.49-1.46L262.97,42L262,40.93l-0.49-1.46V18.96l0.49-1.56l0.98-1.07l0.59-1.46v-4.1l0.49-1.56l0.98-1.07l1.07-0.98l0.98-1.07
		l1.07-0.98l1.46-0.59h20.51l1.56,0.59l1.07,0.98l1.46,0.49l1.56,0.59l1.07,0.98l0.98,1.07l1.07,0.98l0.98,1.07l0.59,1.56v2.05
		l-0.59,1.46l-1.56,0.49l-1.46-0.49l-1.07-0.98l-0.98-1.07l-1.07-0.98l-0.98-1.07l-1.07-0.98l-0.98-1.07l-1.07-0.98l-1.56-0.59
		h-14.36l-1.46,0.59l-1.07,0.98l-0.98,1.07l-1.07,0.98l-0.98,1.07l-0.49,1.56v2.05l-0.59,1.46l-0.98,1.07l-0.49,1.56v16.41
		l0.49,1.46l0.98,1.07l1.07,0.98l0.98,1.07l1.07,0.98l1.46,0.49h2.05l1.56,0.59l1.07,0.98l1.46,0.49h2.05l1.56,0.59l1.07,0.98
		l1.46,0.49l1.56-0.49l1.07-0.98l1.46-0.59h2.05l1.56-0.49l1.07-0.98l0.98-1.07l1.07-0.98l0.98-1.07l0.59-1.46v-6.15l-0.59-1.56
		l-0.98-1.07l-1.07-0.98l-1.56-0.59l-1.46,0.59l-1.07,0.98l-1.56,0.49h-10.25l-1.46-0.49l-0.49-1.46l0.49-1.56l1.46-0.59h8.2
		l1.56-0.49l1.07-0.98l1.46-0.59h6.15l1.56,0.59l1.07,0.98l0.98,1.07l0.59,1.56v14.36l-0.59,1.46L298.91,46.11z"/>
	<path class="st0" d="M363.95,43.47H353.7l-1.46,0.59l-1.07,0.98l-1.56,0.49h-12.3l-1.46-0.49l-0.49-1.46V2.55l0.49-1.56l1.46-0.59
		l1.56,0.59l0.59,1.56v36.91l0.49,1.46l1.46,0.49h6.15l1.56-0.49l1.07-0.98l1.46-0.59h12.3l1.56,0.59l0.59,1.56l-0.59,1.46
		L363.95,43.47z"/>
	<path class="st0" d="M388.66,47.57H374.3l-1.46-0.49l-0.49-1.46l0.49-1.56l1.46-0.59h2.05l1.56-0.49l0.59-1.46v-2.05l0.49-1.56
		l0.98-1.07l0.59-1.46V16.91l-0.59-1.56l-1.56-0.59h-4.1l-1.46-0.49l-0.49-1.46l0.49-1.56l1.46-0.59l1.56-0.49l1.07-0.98l1.46-0.59
		h10.25l1.56,0.59l0.59,1.56l-0.59,1.46l-1.56,0.49h-2.05l-1.46,0.59l-0.49,1.56v22.56l-0.59,1.46l-0.98,1.07l-0.49,1.56l0.49,1.46
		l1.46,0.49h4.1l1.56,0.59l0.59,1.56l-0.59,1.46L388.66,47.57z"/>
	<path class="st0" d="M430.36,39.95l-1.07,0.98L428.3,42l-1.07,0.98l-0.98,1.07l-1.07,0.98l-1.56,0.49h-4.1l-1.46,0.59l-1.07,0.98
		l-1.56,0.49h-8.2l-1.46-0.49l-1.07-0.98l-1.56-0.59l-1.46-0.49l-1.07-0.98l-0.98-1.07l-0.49-1.46l0.49-1.56l1.46-0.59h2.05
		l1.56,0.59l1.07,0.98l0.98,1.07l1.07,0.98l1.46,0.49h4.1l1.56-0.49L416,42l1.46-0.59h2.05l1.56-0.49l1.07-0.98l1.46-0.59l1.56-0.49
		l1.07-0.98l0.98-1.07l0.59-1.46l-0.59-1.56l-0.98-1.07l-1.07-0.98l-0.98-1.07l-1.07-0.98l-1.56-0.59h-4.1L416,28.62l-1.07-0.98
		l-1.56-0.59h-4.1l-1.46-0.49l-1.07-0.98l-1.56-0.59l-1.46-0.49l-1.07-0.98l-1.56-0.59l-1.46-0.49l-1.07-0.98l-0.98-1.07l-0.49-1.46
		V12.8l0.49-1.56l0.98-1.07l0.59-1.46l0.49-1.56l1.46-0.59l1.56-0.49l1.07-0.98l1.46-0.59h16.41l1.56,0.59l1.07,0.98l0.98,1.07
		l0.59,1.56v2.05l-0.59,1.46l-1.56,0.49l-1.46-0.49l-1.07-0.98l-0.98-1.07l-1.07-0.98l-1.56-0.59h-10.25l-1.46,0.59l-1.07,0.98
		l-0.98,1.07l-1.07,0.98l-0.98,1.07l-0.49,1.56l0.49,1.46l0.98,1.07l1.07,0.98l0.98,1.07l1.07,0.98l1.46,0.49h2.05l1.56,0.59
		l1.07,0.98l1.46,0.49h2.05l1.56,0.59l1.07,0.98l1.46,0.49h4.1l1.56,0.59l1.07,0.98l1.46,0.49l1.56,0.59l1.07,0.98l0.98,1.07
		l0.59,1.56v6.15l-0.59,1.46L430.36,39.95z"/>
	<path class="st0" d="M473.09,6.55h-16.41l-1.46,0.59l-0.49,1.56v34.86l-0.59,1.46l-1.56,0.49l-1.46-0.49l-0.49-1.46V8.7l-0.59-1.56
		l-1.56-0.59h-10.25l-1.46,0.59l-1.07,0.98l-1.56,0.49l-1.46-0.49l-0.49-1.46V4.6l0.49-1.56l1.46-0.59h38.96l1.56,0.59l0.59,1.56
		l-0.59,1.46L473.09,6.55z"/>
</g>
</svg>
